<?xml version="1.0" standalone="no"?>
<!DOCTYPE svg PUBLIC "-//W3C//DTD SVG 20010904//EN"
 "http://www.w3.org/TR/2001/REC-SVG-20010904/DTD/svg10.dtd">
<svg version="1.0" xmlns="http://www.w3.org/2000/svg"
 width="626.000000pt" height="626.000000pt" viewBox="0 0 626.000000 626.000000"
 preserveAspectRatio="xMidYMid meet">

<g transform="translate(0.000000,626.000000) scale(0.100000,-0.100000)"
fill="#000000" stroke="none">
<path d="M3300 4994 c-143 -100 -290 -166 -425 -189 -104 -18 -227 -62 -300
-106 -122 -73 -231 -225 -237 -332 l-3 -48 -70 -30 c-104 -43 -203 -122 -238
-189 -29 -54 -29 -57 -23 -165 3 -60 19 -186 35 -280 33 -190 41 -205 113
-205 28 0 46 7 63 25 23 22 25 31 25 122 0 159 34 254 116 322 68 56 120 67
284 61 80 -3 264 -5 410 -5 278 0 300 3 474 52 162 46 307 19 379 -69 39 -49
56 -126 63 -283 7 -189 11 -210 44 -245 41 -44 113 -40 139 9 6 10 29 123 52
252 23 129 45 254 50 279 13 73 10 279 -5 351 -22 101 -68 192 -131 258 -83
87 -155 121 -393 181 l-42 11 29 37 c34 43 102 154 97 159 -1 2 -32 -10 -67
-26 -96 -43 -213 -77 -332 -97 -107 -17 -129 -16 -110 8 16 21 78 188 70 188
-1 0 -31 -21 -67 -46z"/>
<path d="M2410 2109 c-50 -25 -207 -77 -465 -155 -405 -121 -466 -143 -537
-192 -45 -31 -138 -121 -138 -133 0 -14 253 -270 330 -334 196 -163 500 -336
738 -419 157 -55 333 -95 524 -120 l38 -5 -35 70 c-144 285 -273 714 -345
1144 -11 66 -20 135 -20 153 0 17 -3 31 -7 31 -5 -1 -42 -19 -83 -40z"/>
<path d="M3760 2120 c0 -52 -48 -322 -86 -483 -76 -324 -172 -604 -279 -816
l-35 -70 28 4 c15 3 63 10 107 15 369 50 762 219 1100 473 78 59 395 368 395
386 0 27 -129 135 -211 177 -27 13 -230 78 -451 145 -240 72 -433 135 -478
157 -41 20 -78 39 -82 40 -5 2 -8 -11 -8 -28z"/>
</g>
</svg>
